<?xml version="1.0" standalone="no"?>
<!DOCTYPE svg PUBLIC "-//W3C//DTD SVG 20010904//EN"
 "http://www.w3.org/TR/2001/REC-SVG-20010904/DTD/svg10.dtd">
<svg version="1.0" xmlns="http://www.w3.org/2000/svg"
 width="260.000000pt" height="260.000000pt" viewBox="0 0 260.000000 260.000000"
 preserveAspectRatio="xMidYMid meet">
<metadata>
Created by potrace 1.11, written by Peter Selinger 2001-2013
</metadata>
<g transform="translate(0.000000,260.000000) scale(0.100000,-0.100000)"
fill="#000000" stroke="none">
<path d="M1980 2560 c0 -5 -25 -10 -55 -10 -42 0 -55 -3 -55 -15 0 -11 -12
-15 -50 -15 -27 0 -50 -4 -50 -10 0 -5 -25 -10 -55 -10 -42 0 -55 -3 -55 -15
0 -11 -12 -15 -50 -15 -38 0 -50 -4 -50 -15 0 -11 -12 -15 -50 -15 -27 0 -50
-4 -50 -10 0 -5 -25 -10 -55 -10 -42 0 -55 -3 -55 -15 0 -11 -12 -15 -50 -15
-27 0 -50 -4 -50 -10 0 -5 -25 -10 -55 -10 -42 0 -55 -3 -55 -15 0 -10 -11
-15 -35 -15 -31 0 -35 -3 -35 -25 0 -20 5 -25 25 -25 14 0 25 5 25 10 0 6 18
10 40 10 22 0 40 -4 40 -10 0 -5 -7 -10 -15 -10 -12 0 -15 -13 -15 -55 0 -42
3 -55 15 -55 11 0 15 -12 15 -50 0 -27 5 -50 10 -50 6 0 10 -22 10 -50 0 -38
4 -50 15 -50 12 0 15 -13 15 -55 0 -30 5 -55 10 -55 6 0 10 -22 10 -50 0 -38
4 -50 15 -50 9 0 15 -9 15 -25 0 -20 5 -25 25 -25 16 0 25 -6 25 -15 0 -11
-12 -15 -50 -15 -38 0 -50 -4 -50 -15 0 -12 -13 -15 -55 -15 -30 0 -55 -4 -55
-10 0 -5 -22 -10 -50 -10 -38 0 -50 -4 -50 -15 0 -11 -12 -15 -50 -15 -27 0
-50 -4 -50 -10 0 -5 -25 -10 -55 -10 -42 0 -55 -3 -55 -15 0 -12 -14 -15 -65
-15 l-65 0 0 40 c0 22 -4 40 -10 40 -5 0 -10 23 -10 50 0 38 -4 50 -15 50 -12
0 -15 13 -15 55 0 42 -3 55 -15 55 -11 0 -15 12 -15 50 0 28 -4 50 -10 50 -5
0 -10 23 -10 50 0 38 -4 50 -15 50 -12 0 -15 13 -15 55 0 32 4 55 11 55 14 0
39 25 39 39 0 6 -16 11 -35 11 -24 0 -35 -5 -35 -15 0 -12 -13 -15 -55 -15
-30 0 -55 -4 -55 -10 0 -5 -22 -10 -50 -10 -38 0 -50 -4 -50 -15 0 -12 -13
-15 -55 -15 -30 0 -55 -4 -55 -10 0 -5 -22 -10 -50 -10 -38 0 -50 -4 -50 -15
0 -11 -12 -15 -50 -15 l-50 0 0 -65 c0 -37 4 -65 10 -65 6 0 10 -22 10 -50 0
-38 4 -50 15 -50 12 0 15 -13 15 -55 0 -30 5 -55 10 -55 6 0 10 -22 10 -50 0
-38 4 -50 15 -50 12 0 15 -13 15 -55 0 -42 3 -55 15 -55 11 0 15 -12 15 -50 0
-27 5 -50 10 -50 6 0 10 -22 10 -50 0 -38 4 -50 15 -50 11 0 15 -11 15 -40 0
-22 5 -40 10 -40 6 0 10 -25 10 -55 0 -42 3 -55 15 -55 11 0 15 -12 15 -50 0
-38 4 -50 15 -50 11 0 15 -12 15 -50 0 -27 5 -50 10 -50 6 0 10 -25 10 -55 0
-42 3 -55 15 -55 11 0 15 -12 15 -50 0 -27 5 -50 10 -50 6 0 10 -25 10 -55 0
-42 3 -55 15 -55 11 0 15 -12 15 -50 0 -38 4 -50 15 -50 11 0 15 -12 15 -50 0
-27 5 -50 10 -50 6 0 10 -25 10 -55 0 -42 3 -55 15 -55 11 0 15 -12 15 -50 0
-27 5 -50 10 -50 6 0 10 -25 10 -55 0 -42 3 -55 15 -55 10 0 15 -11 15 -35 l0
-35 65 0 c37 0 65 4 65 10 0 6 23 10 50 10 38 0 50 4 50 15 0 12 13 15 55 15
30 0 55 5 55 10 0 6 23 10 50 10 38 0 50 4 50 15 0 12 13 15 55 15 42 0 55 3
55 15 0 11 12 15 50 15 28 0 50 5 50 10 0 6 23 10 50 10 38 0 50 4 50 15 0 11
11 15 40 15 22 0 40 5 40 10 0 6 25 10 55 10 42 0 55 3 55 15 0 11 12 15 50
15 38 0 50 4 50 15 0 11 12 15 50 15 28 0 50 5 50 10 0 6 25 10 55 10 42 0 55
3 55 15 0 11 12 15 50 15 28 0 50 5 50 10 0 6 25 10 55 10 42 0 55 3 55 15 0
11 12 15 50 15 38 0 50 4 50 15 0 11 12 15 50 15 28 0 50 5 50 10 0 6 25 10
55 10 42 0 55 3 55 15 0 11 12 15 50 15 28 0 50 5 50 10 0 6 25 10 55 10 42 0
55 3 55 15 0 10 11 15 35 15 l35 0 0 50 c0 28 -4 50 -10 50 -5 0 -10 25 -10
55 0 42 -3 55 -15 55 -11 0 -15 12 -15 50 0 28 -4 50 -10 50 -5 0 -10 25 -10
55 0 42 -3 55 -15 55 -11 0 -15 12 -15 50 0 38 -4 50 -15 50 -11 0 -15 12 -15
50 0 28 -4 50 -10 50 -5 0 -10 25 -10 55 0 42 -3 55 -15 55 -11 0 -15 12 -15
50 0 28 -4 50 -10 50 -5 0 -10 25 -10 55 0 42 -3 55 -15 55 -10 0 -15 11 -15
35 0 24 -5 35 -15 35 -12 0 -15 13 -15 55 0 30 -4 55 -10 55 -5 0 -10 23 -10
50 0 38 -4 50 -15 50 -12 0 -15 13 -15 55 0 30 -4 55 -10 55 -5 0 -10 23 -10
50 0 38 -4 50 -15 50 -11 0 -15 12 -15 50 0 38 -4 50 -15 50 -12 0 -15 13 -15
55 0 30 -4 55 -10 55 -5 0 -10 23 -10 50 0 38 -4 50 -15 50 -12 0 -15 13 -15
55 0 30 -4 55 -10 55 -5 0 -10 23 -10 50 0 38 -4 50 -15 50 -11 0 -15 12 -15
50 l0 50 -50 0 c-27 0 -50 -4 -50 -10z m70 -90 c0 -38 4 -50 15 -50 12 0 15
-13 15 -55 0 -42 3 -55 15 -55 11 0 15 -12 15 -50 0 -27 5 -50 10 -50 6 0 10
-22 10 -50 0 -38 4 -50 15 -50 12 0 15 -13 15 -55 0 -30 5 -55 10 -55 6 0 10
-22 10 -50 0 -38 4 -50 15 -50 12 0 15 -13 15 -55 0 -42 3 -55 15 -55 10 0 15
-11 15 -35 0 -19 5 -35 10 -35 6 0 10 -28 10 -65 0 -51 3 -65 15 -65 11 0 15
-11 15 -40 0 -22 5 -40 10 -40 6 0 10 -25 10 -55 0 -42 3 -55 15 -55 11 0 15
-12 15 -50 0 -38 4 -50 15 -50 11 0 15 -12 15 -50 0 -27 5 -50 10 -50 6 0 10
-25 10 -55 0 -42 3 -55 15 -55 11 0 15 -12 15 -50 0 -27 5 -50 10 -50 6 0 10
-25 10 -55 0 -42 3 -55 15 -55 11 0 15 -12 15 -50 0 -38 4 -50 15 -50 11 0 15
-12 15 -50 0 -27 5 -50 10 -50 6 0 10 -28 10 -65 l0 -65 -40 0 c-29 0 -40 -4
-40 -15 0 -10 -11 -15 -35 -15 -31 0 -35 3 -35 25 0 16 -6 25 -15 25 -11 0
-15 11 -15 40 0 29 4 40 15 40 9 0 15 -9 15 -25 0 -23 3 -25 50 -25 28 0 50 5
50 10 0 6 7 10 15 10 10 0 15 10 15 30 0 20 -5 30 -15 30 -10 0 -15 11 -15 35
0 31 -3 35 -25 35 -14 0 -25 -4 -25 -10 0 -5 -18 -10 -40 -10 -36 0 -40 -2
-40 -25 0 -16 -6 -25 -15 -25 -11 0 -15 12 -15 50 0 28 -4 50 -10 50 -5 0 -10
18 -10 40 0 29 -4 40 -15 40 -11 0 -15 12 -15 50 0 28 -4 50 -10 50 -5 0 -10
25 -10 55 0 42 -3 55 -15 55 -11 0 -15 12 -15 50 0 38 -4 50 -15 50 -11 0 -15
12 -15 50 0 28 -4 50 -10 50 -5 0 -10 25 -10 55 0 42 -3 55 -15 55 -11 0 -15
12 -15 50 0 28 -4 50 -10 50 -5 0 -10 25 -10 55 0 42 -3 55 -15 55 -10 0 -15
11 -15 35 0 24 -5 35 -15 35 -8 0 -15 7 -15 15 0 10 -11 15 -35 15 -24 0 -35
-5 -35 -15 0 -12 -13 -15 -55 -15 -30 0 -55 -4 -55 -10 0 -5 -22 -10 -50 -10
-38 0 -50 -4 -50 -15 0 -12 -13 -15 -55 -15 -30 0 -55 -4 -55 -10 0 -5 -22
-10 -50 -10 -38 0 -50 -4 -50 -15 0 -11 -12 -15 -50 -15 -38 0 -50 -4 -50 -15
0 -12 -13 -15 -55 -15 -30 0 -55 -4 -55 -10 0 -5 -22 -10 -50 -10 -38 0 -50
-4 -50 -15 0 -12 -13 -15 -55 -15 -30 0 -55 -4 -55 -10 0 -5 -16 -10 -35 -10
-24 0 -35 -5 -35 -15 0 -12 -13 -15 -55 -15 -42 0 -55 -3 -55 -15 0 -11 -12
-15 -50 -15 -27 0 -50 -4 -50 -10 0 -5 -25 -10 -55 -10 -42 0 -55 -3 -55 -15
0 -11 -12 -15 -50 -15 -27 0 -50 -4 -50 -10 0 -5 -22 -10 -50 -10 -38 0 -50
-4 -50 -15 0 -11 -11 -15 -40 -15 -29 0 -40 -4 -40 -15 0 -8 -7 -15 -15 -15
-8 0 -15 -4 -15 -10 0 -5 7 -10 15 -10 12 0 15 -13 15 -55 0 -30 5 -55 10 -55
6 0 10 -22 10 -50 0 -38 4 -50 15 -50 11 0 15 -11 15 -40 0 -29 4 -40 15 -40
11 0 15 -12 15 -50 0 -27 5 -50 10 -50 6 0 10 -25 10 -55 0 -42 3 -55 15 -55
11 0 15 -12 15 -50 0 -27 5 -50 10 -50 6 0 10 -22 10 -50 0 -38 4 -50 15 -50
12 0 15 -13 15 -55 0 -42 3 -55 15 -55 11 0 15 -12 15 -50 0 -27 5 -50 10 -50
6 0 10 -25 10 -55 0 -42 3 -55 15 -55 11 0 15 -12 15 -50 0 -27 5 -50 10 -50
6 0 10 -7 10 -15 0 -9 -9 -15 -25 -15 -14 0 -25 -4 -25 -10 0 -5 -22 -10 -50
-10 -38 0 -50 -4 -50 -15 0 -9 -9 -15 -25 -15 -24 0 -25 3 -25 55 0 42 -3 55
-15 55 -11 0 -15 12 -15 50 0 38 -4 50 -15 50 -11 0 -15 12 -15 50 0 28 -4 50
-10 50 -5 0 -10 25 -10 55 0 42 -3 55 -15 55 -11 0 -15 12 -15 50 0 28 -4 50
-10 50 -5 0 -10 25 -10 55 0 42 -3 55 -15 55 -11 0 -15 12 -15 50 0 38 -4 50
-15 50 -11 0 -15 12 -15 50 0 28 -4 50 -10 50 -5 0 -10 25 -10 55 0 42 -3 55
-15 55 -11 0 -15 12 -15 50 0 28 -4 50 -10 50 -5 0 -10 18 -10 40 0 29 -4 40
-15 40 -12 0 -15 14 -15 65 0 51 -3 65 -15 65 -11 0 -15 11 -15 40 0 22 -4 40
-10 40 -5 0 -10 23 -10 50 0 38 -4 50 -15 50 -12 0 -15 13 -15 55 0 30 -4 55
-10 55 -5 0 -10 23 -10 50 0 38 -4 50 -15 50 -11 0 -15 12 -15 50 0 38 -4 50
-15 50 -12 0 -15 13 -15 55 0 30 -4 55 -10 55 -5 0 -10 23 -10 50 0 38 -4 50
-15 50 -8 0 -15 7 -15 15 0 8 7 15 15 15 8 0 15 5 15 10 0 6 23 10 50 10 38 0
50 4 50 15 0 12 13 15 55 15 42 0 55 3 55 15 0 11 12 15 50 15 28 0 50 5 50
10 0 6 28 10 65 10 l65 0 0 -50 c0 -38 4 -50 15 -50 12 0 15 -13 15 -55 0 -30
5 -55 10 -55 6 0 10 -22 10 -50 0 -38 4 -50 15 -50 11 0 15 -12 15 -50 0 -27
5 -50 10 -50 6 0 10 -25 10 -55 0 -42 3 -55 15 -55 11 0 15 -12 15 -50 0 -38
4 -50 15 -50 8 0 15 -7 15 -15 0 -10 11 -15 35 -15 24 0 35 5 35 15 0 12 13
15 55 15 30 0 55 5 55 10 0 6 23 10 50 10 38 0 50 4 50 15 0 12 13 15 55 15
42 0 55 3 55 15 0 11 12 15 50 15 28 0 50 5 50 10 0 6 23 10 50 10 38 0 50 4
50 15 0 12 13 15 55 15 30 0 55 5 55 10 0 6 23 10 50 10 38 0 50 4 50 15 0 12
13 15 55 15 42 0 55 3 55 15 0 11 12 15 50 15 28 0 50 5 50 10 0 6 23 10 50
10 38 0 50 4 50 15 0 8 7 15 15 15 8 0 15 5 15 10 0 6 -7 10 -15 10 -12 0 -15
13 -15 55 0 30 -4 55 -10 55 -5 0 -10 23 -10 50 0 38 -4 50 -15 50 -12 0 -15
13 -15 55 0 30 -4 55 -10 55 -5 0 -10 23 -10 50 0 38 -4 50 -15 50 -11 0 -15
12 -15 50 0 38 -4 50 -15 50 -12 0 -15 13 -15 55 0 30 -4 55 -10 55 -5 0 -10
5 -10 10 0 6 18 10 40 10 29 0 40 4 40 15 0 11 12 15 50 15 38 0 50 4 50 15 0
11 12 15 50 15 28 0 50 5 50 10 0 6 28 10 65 10 l65 0 0 -50z m-460 -65 c0 -8
5 -15 10 -15 6 0 10 -22 10 -50 0 -38 4 -50 15 -50 12 0 15 -13 15 -55 0 -30
5 -55 10 -55 6 0 10 -22 10 -50 0 -38 4 -50 15 -50 11 0 15 -12 15 -50 0 -38
4 -50 15 -50 12 0 15 -13 15 -55 0 -30 5 -55 10 -55 6 0 10 -18 10 -40 l0 -40
-40 0 c-22 0 -40 -4 -40 -10 0 -5 -16 -10 -35 -10 -19 0 -35 5 -35 10 0 6 5
10 10 10 6 0 10 25 10 55 0 30 -4 55 -10 55 -5 0 -10 23 -10 50 0 38 -4 50
-15 50 -12 0 -15 13 -15 55 0 42 -3 55 -15 55 -11 0 -15 12 -15 50 0 28 -4 50
-10 50 -5 0 -10 23 -10 50 0 38 -4 50 -15 50 -10 0 -15 10 -15 30 0 25 -4 30
-25 30 -14 0 -25 5 -25 10 0 6 23 10 50 10 38 0 50 4 50 15 0 10 10 15 30 15
20 0 30 -5 30 -15z m-190 -50 c0 -10 -11 -15 -35 -15 -24 0 -35 5 -35 15 0 10
11 15 35 15 24 0 35 -5 35 -15z m-100 -30 c0 -11 -11 -15 -40 -15 -29 0 -40 4
-40 15 0 11 11 15 40 15 29 0 40 -4 40 -15z m130 -50 c0 -8 7 -15 15 -15 11 0
15 -12 15 -50 0 -27 5 -50 10 -50 6 0 10 -18 10 -40 0 -29 4 -40 15 -40 11 0
15 -12 15 -50 0 -27 5 -50 10 -50 6 0 10 -25 10 -55 0 -42 3 -55 15 -55 9 0
15 -9 15 -25 0 -23 -3 -25 -50 -25 -38 0 -50 -4 -50 -15 0 -12 -14 -15 -65
-15 l-65 0 0 55 c0 42 -3 55 -15 55 -11 0 -15 12 -15 50 0 38 -4 50 -15 50
-12 0 -15 13 -15 55 0 30 -4 55 -10 55 -5 0 -10 23 -10 50 0 38 -4 50 -15 50
-8 0 -15 7 -15 15 0 8 7 15 15 15 8 0 15 5 15 10 0 6 23 10 50 10 38 0 50 4
50 15 0 11 11 15 40 15 29 0 40 -4 40 -15z m130 -520 c0 -9 -9 -15 -25 -15
-16 0 -25 6 -25 15 0 9 9 15 25 15 16 0 25 -6 25 -15z m-100 -25 c0 -5 -13
-10 -30 -10 -16 0 -30 5 -30 10 0 6 14 10 30 10 17 0 30 -4 30 -10z m720 -705
l0 -65 -35 0 c-19 0 -35 -4 -35 -10 0 -5 -25 -10 -55 -10 -42 0 -55 -3 -55
-15 0 -11 -12 -15 -50 -15 -38 0 -50 -4 -50 -15 0 -12 -13 -15 -55 -15 -30 0
-55 -4 -55 -10 0 -5 -16 -10 -35 -10 -24 0 -35 -5 -35 -15 0 -12 -13 -15 -55
-15 -30 0 -55 -4 -55 -10 0 -5 -22 -10 -50 -10 -38 0 -50 -4 -50 -15 0 -12
-13 -15 -55 -15 -42 0 -55 -3 -55 -15 0 -11 -12 -15 -50 -15 -27 0 -50 -4 -50
-10 0 -5 -22 -10 -50 -10 -38 0 -50 -4 -50 -15 0 -12 -13 -15 -55 -15 -30 0
-55 -4 -55 -10 0 -5 -22 -10 -50 -10 -38 0 -50 -4 -50 -15 0 -12 -13 -15 -55
-15 -42 0 -55 -3 -55 -15 0 -10 -11 -15 -35 -15 -19 0 -35 -4 -35 -10 0 -5
-25 -10 -55 -10 -42 0 -55 -3 -55 -15 0 -8 -4 -15 -10 -15 -5 0 -10 18 -10 40
0 29 -4 40 -15 40 -11 0 -15 11 -15 40 l0 40 50 0 c28 0 50 5 50 10 0 6 25 10
55 10 42 0 55 3 55 15 0 11 12 15 50 15 38 0 50 4 50 15 0 11 11 15 40 15 22
0 40 5 40 10 0 6 23 10 50 10 38 0 50 4 50 15 0 12 13 15 55 15 30 0 55 5 55
10 0 6 23 10 50 10 38 0 50 4 50 15 0 12 13 15 55 15 42 0 55 3 55 15 0 11 12
15 50 15 28 0 50 5 50 10 0 6 23 10 50 10 38 0 50 4 50 15 0 12 13 15 55 15
30 0 55 5 55 10 0 6 23 10 50 10 38 0 50 4 50 15 0 12 13 15 55 15 42 0 55 3
55 15 0 10 11 15 35 15 19 0 35 5 35 10 0 6 28 10 65 10 l65 0 0 -65z m30
-115 c0 -20 5 -30 15 -30 10 0 15 -11 15 -35 0 -34 -1 -35 -40 -35 -29 0 -40
-4 -40 -15 0 -12 -13 -15 -55 -15 -42 0 -55 -3 -55 -15 0 -11 -12 -15 -50 -15
-27 0 -50 -4 -50 -10 0 -5 -22 -10 -50 -10 -38 0 -50 -4 -50 -15 0 -11 -11
-15 -40 -15 -22 0 -40 -4 -40 -10 0 -5 -25 -10 -55 -10 -42 0 -55 -3 -55 -15
0 -11 -12 -15 -50 -15 -38 0 -50 -4 -50 -15 0 -11 -12 -15 -50 -15 -27 0 -50
-4 -50 -10 0 -5 -25 -10 -55 -10 -42 0 -55 -3 -55 -15 0 -11 -12 -15 -50 -15
-27 0 -50 -4 -50 -10 0 -5 -25 -10 -55 -10 -42 0 -55 -3 -55 -15 0 -10 -11
-15 -35 -15 -24 0 -35 -5 -35 -15 0 -12 -13 -15 -55 -15 -30 0 -55 -4 -55 -10
0 -5 -22 -10 -50 -10 -38 0 -50 -4 -50 -15 0 -11 -13 -15 -54 -15 -34 0 -57
-5 -60 -12 -5 -10 -7 -10 -12 0 -3 6 -12 12 -20 12 -10 0 -14 14 -14 55 0 42
3 55 15 55 8 0 15 5 15 10 0 6 23 10 50 10 38 0 50 4 50 15 0 11 11 15 40 15
22 0 40 5 40 10 0 6 23 10 50 10 38 0 50 4 50 15 0 12 13 15 55 15 42 0 55 3
55 15 0 11 12 15 50 15 28 0 50 5 50 10 0 6 25 10 55 10 42 0 55 3 55 15 0 11
12 15 50 15 28 0 50 5 50 10 0 6 23 10 50 10 38 0 50 4 50 15 0 12 13 15 55
15 42 0 55 3 55 15 0 11 11 15 40 15 22 0 40 5 40 10 0 6 23 10 50 10 38 0 50
4 50 15 0 11 12 15 50 15 28 0 50 5 50 10 0 6 25 10 55 10 42 0 55 3 55 15 0
11 12 15 50 15 38 0 50 4 50 15 0 11 11 15 40 15 38 0 40 -2 40 -30z m50 -195
c0 -63 -1 -65 -25 -65 -16 0 -25 -6 -25 -15 0 -11 -12 -15 -50 -15 -27 0 -50
-4 -50 -10 0 -5 -25 -10 -55 -10 -42 0 -55 -3 -55 -15 0 -11 -12 -15 -50 -15
-27 0 -50 -4 -50 -10 0 -5 -25 -10 -55 -10 -42 0 -55 -3 -55 -15 0 -11 -12
-15 -50 -15 -38 0 -50 -4 -50 -15 0 -11 -11 -15 -40 -15 -22 0 -40 -4 -40 -10
0 -5 -22 -10 -50 -10 -38 0 -50 -4 -50 -15 0 -12 -13 -15 -55 -15 -30 0 -55
-4 -55 -10 0 -5 -22 -10 -50 -10 -38 0 -50 -4 -50 -15 0 -11 -12 -15 -50 -15
-38 0 -50 -4 -50 -15 0 -12 -13 -15 -55 -15 -30 0 -55 -4 -55 -10 0 -5 -22
-10 -50 -10 -38 0 -50 -4 -50 -15 0 -12 -13 -15 -55 -15 -30 0 -55 -4 -55 -10
0 -5 -22 -10 -50 -10 -38 0 -50 -4 -50 -15 0 -8 -7 -15 -15 -15 -11 0 -15 11
-15 40 0 22 -4 40 -10 40 -5 0 -10 11 -10 25 0 20 5 25 25 25 16 0 25 6 25 15
0 11 12 15 50 15 28 0 50 5 50 10 0 6 25 10 55 10 42 0 55 3 55 15 0 11 11 15
40 15 22 0 40 5 40 10 0 6 23 10 50 10 38 0 50 4 50 15 0 11 12 15 50 15 38 0
50 4 50 15 0 12 13 15 55 15 30 0 55 5 55 10 0 6 23 10 50 10 38 0 50 4 50 15
0 12 13 15 55 15 30 0 55 5 55 10 0 6 23 10 50 10 38 0 50 4 50 15 0 11 12 15
50 15 38 0 50 4 50 15 0 11 11 15 40 15 22 0 40 5 40 10 0 6 25 10 55 10 42 0
55 3 55 15 0 11 12 15 50 15 28 0 50 5 50 10 0 6 23 10 50 10 38 0 50 4 50 15
0 11 11 15 40 15 l40 0 0 -65z m30 -120 c0 -14 5 -25 10 -25 6 0 10 -18 10
-40 0 -39 -1 -40 -35 -40 -19 0 -35 -4 -35 -10 0 -5 -25 -10 -55 -10 -42 0
-55 -3 -55 -15 0 -11 -11 -15 -40 -15 -22 0 -40 -4 -40 -10 0 -5 -22 -10 -50
-10 -38 0 -50 -4 -50 -15 0 -11 -12 -15 -50 -15 -38 0 -50 -4 -50 -15 0 -12
-13 -15 -55 -15 -30 0 -55 -4 -55 -10 0 -5 -22 -10 -50 -10 -38 0 -50 -4 -50
-15 0 -12 -13 -15 -55 -15 -30 0 -55 -4 -55 -10 0 -5 -22 -10 -50 -10 -38 0
-50 -4 -50 -15 0 -11 -12 -15 -50 -15 -38 0 -50 -4 -50 -15 0 -12 -13 -15 -55
-15 -30 0 -55 -4 -55 -10 0 -5 -22 -10 -50 -10 -38 0 -50 -4 -50 -15 0 -12
-13 -15 -55 -15 -30 0 -55 -4 -55 -10 0 -5 -16 -10 -35 -10 -24 0 -35 -5 -35
-15 0 -12 -16 -15 -80 -15 l-80 0 0 50 c0 38 4 50 15 50 8 0 15 7 15 15 0 11
12 15 50 15 38 0 50 4 50 15 0 11 12 15 50 15 28 0 50 5 50 10 0 6 25 10 55
10 42 0 55 3 55 15 0 11 12 15 50 15 28 0 50 5 50 10 0 6 25 10 55 10 42 0 55
3 55 15 0 11 12 15 50 15 38 0 50 4 50 15 0 11 12 15 50 15 28 0 50 5 50 10 0
6 18 10 40 10 29 0 40 4 40 15 0 12 13 15 55 15 30 0 55 5 55 10 0 6 23 10 50
10 38 0 50 4 50 15 0 11 12 15 50 15 38 0 50 4 50 15 0 12 13 15 55 15 30 0
55 5 55 10 0 6 23 10 50 10 38 0 50 4 50 15 0 12 13 15 55 15 30 0 55 5 55 10
0 6 11 10 25 10 20 0 25 -5 25 -25z"/>
<path d="M600 275 c0 -9 -9 -15 -25 -15 -22 0 -25 -4 -25 -40 0 -22 5 -40 10
-40 6 0 10 -11 10 -25 0 -22 4 -25 40 -25 29 0 40 4 40 15 0 9 9 15 25 15 20
0 25 5 25 25 0 14 -4 25 -10 25 -5 0 -10 18 -10 40 l0 40 -40 0 c-29 0 -40 -4
-40 -15z"/>
<path d="M960 2285 c0 -20 5 -25 25 -25 16 0 25 6 25 15 0 8 7 15 15 15 8 0
15 5 15 10 0 6 -18 10 -40 10 -36 0 -40 -2 -40 -25z"/>
<path d="M860 2265 c0 -20 5 -25 25 -25 14 0 25 5 25 10 0 6 7 10 15 10 8 0
15 7 15 15 0 11 -11 15 -40 15 -36 0 -40 -2 -40 -25z"/>
<path d="M750 2235 c0 -21 5 -25 30 -25 20 0 30 5 30 15 0 8 5 15 10 15 6 0
10 5 10 10 0 6 -18 10 -40 10 -36 0 -40 -2 -40 -25z"/>
<path d="M650 2225 c0 -8 7 -15 15 -15 8 0 15 -7 15 -15 0 -8 5 -15 10 -15 6
0 10 7 10 15 0 8 7 15 15 15 8 0 15 7 15 15 0 11 -11 15 -40 15 -29 0 -40 -4
-40 -15z"/>
</g>
</svg>
